PathFileType	4	(X/Y/Z)	s05c0203.trc
DataRate	CameraRate	NumFrames	NumMarkers	Units	OrigDataRate	OrigDataStartFrame	OrigNumFrames
200	200	4	47	mm	200	500	2000
Frame#	Time	racr			lacr			c7			jug			rlel			rdr			llel			ldr			s2			lic			ric			lasi			rasi			rpsi			lpsi			rgt			lgt			rth1			rth2			rth3			rth4			rlfc			rsh1			rsh2			rsh3			rsh4			rlmal			rcal			rtoe			rmt5			lth1			lth2			lth4			lth3			llfc			lmfc			lsh1			lsh2			lsh3			lsh4			llmal			lcal			ltoe			lmt5			SBIKE			LBIKE			RBIKE			
		X1	Y1	Z1	X2	Y2	Z2	X3	Y3	Z3	X4	Y4	Z4	X5	Y5	Z5	X6	Y6	Z6	X7	Y7	Z7	X8	Y8	Z8	X9	Y9	Z9	X10	Y10	Z10	X11	Y11	Z11	X12	Y12	Z12	X13	Y13	Z13	X14	Y14	Z14	X15	Y15	Z15	X16	Y16	Z16	X17	Y17	Z17	X18	Y18	Z18	X19	Y19	Z19	X20	Y20	Z20	X21	Y21	Z21	X22	Y22	Z22	X23	Y23	Z23	X24	Y24	Z24	X25	Y25	Z25	X26	Y26	Z26	X27	Y27	Z27	X28	Y28	Z28	X29	Y29	Z29	X30	Y30	Z30	X31	Y31	Z31	X32	Y32	Z32	X33	Y33	Z33	X34	Y34	Z34	X35	Y35	Z35	X36	Y36	Z36	X37	Y37	Z37	X38	Y38	Z38	X39	Y39	Z39	X40	Y40	Z40	X41	Y41	Z41	X42	Y42	Z42	X43	Y43	Z43	X44	Y44	Z44	X45	Y45	Z45	X46	Y46	Z46	X47	Y47	Z47	
500	2.5000	481.241871	1296.627560	-167.244380	471.232170	1308.945986	-435.527878	443.097834	1385.431549	-304.934052	411.932110	1221.951572	-300.776817	478.828021	1082.323002	19.245078	665.158622	964.820074	-89.464422	445.260054	1081.323383	-621.054071	653.347610	970.969072	-508.117216	-116.786791	1187.360133	-283.948458	32.342633	1192.358127	-432.223886	28.840214	1219.159598	-148.135959	76.235433	1138.359811	-390.888020	67.431702	1157.847551	-174.489643	-83.535603	1239.001441	-249.428705	-77.581794	1234.682584	-334.078155	-1.205300	1102.800388	-111.464732	-43.208690	1085.933940	-446.586384	110.688575	1062.208096	-108.717434	199.495838	1055.220357	-115.587574	270.577187	1003.485670	-122.412363	209.742356	1086.808506	-132.002782	395.082963	931.982291	-156.575665	313.603468	864.327691	-123.984202	274.753181	784.587381	-128.484590	205.585246	734.406923	-124.250267	297.304177	766.348438	-153.380162	124.199165	629.102308	-120.052132	43.489517	629.625243	-160.887953	294.443154	474.281522	-162.699823	197.486239	502.721457	-95.713653	20.981712	959.419555	-467.112806	76.721179	894.148848	-470.923825	110.652037	907.959539	-462.688673	91.399186	804.683712	-470.248440	147.120890	672.183834	-431.955241	134.380797	658.536570	-325.680237	115.326823	550.866519	-462.200704	131.443355	465.624286	-451.054668	102.367730	381.649588	-451.482253	161.694007	466.123825	-427.615556	103.568499	260.781286	-444.739784	40.489188	231.211465	-403.970256	326.061411	158.164760	-398.970224	217.768889	150.704866	-466.286042	-264.051539	892.041337	-285.257664	-53.399919	79.377001	-474.701776	-53.389262	79.346320	-77.102987	
501	2.5050	480.174519	1295.295149	-164.527842	472.333525	1306.922346	-431.719749	442.951365	1384.354320	-302.847153	411.309430	1220.673353	-298.030756	478.401374	1080.621107	20.966966	665.306891	964.870804	-89.066047	446.851461	1082.298838	-620.772969	653.633320	971.282315	-507.436929	-117.791681	1188.039811	-285.267803	32.537912	1191.933887	-432.972503	26.981579	1220.251231	-149.055286	75.760750	1138.043802	-390.835097	65.740364	1158.732703	-174.930865	-84.560876	1239.992877	-250.829351	-78.057596	1235.064266	-335.661075	-2.989229	1103.991135	-112.153225	-43.345152	1085.564522	-447.404433	109.040975	1063.228022	-109.711586	197.992539	1056.719310	-116.549576	269.162085	1005.208479	-123.476778	208.139914	1088.304722	-132.908641	394.107602	934.288817	-157.792878	313.346733	866.031830	-125.158758	275.456090	785.827053	-129.245578	207.001751	734.703690	-124.666803	298.279406	767.581299	-154.068657	126.931727	627.989032	-120.117104	46.006754	626.536581	-160.639516	300.947085	478.000001	-162.455412	203.435413	503.753647	-95.475101	21.398955	959.378292	-466.680305	77.449946	894.308520	-469.977383	111.166560	908.350084	-461.537784	92.571227	804.976170	-469.349471	148.688432	672.454482	-431.098176	135.792752	659.115012	-324.431173	114.607601	551.579289	-461.345076	129.088888	465.998638	-450.048735	98.430028	382.591973	-450.467998	159.363916	465.877392	-426.692325	97.400586	261.564450	-444.020851	34.205463	232.254791	-402.798440	319.200077	156.950672	-399.364600	210.578240	150.355452	-465.939017	-264.303221	892.108766	-285.233726	-53.411848	79.418884	-474.682495	-53.378410	79.364622	-77.081069	
502	2.5100	479.077199	1293.914366	-161.683125	473.125035	1305.043401	-426.992290	443.015583	1382.841208	-300.002871	410.633025	1219.180137	-295.367741	478.010548	1078.903169	22.765171	665.234996	964.753745	-88.864210	448.181169	1083.059105	-620.610847	653.939243	971.543553	-506.822283	-118.847507	1188.602403	-286.830362	32.476258	1191.267129	-433.466498	25.083745	1221.207045	-150.031405	75.285629	1137.653362	-390.940642	63.987619	1159.591182	-175.558298	-85.414067	1240.669869	-252.420499	-78.568577	1235.407457	-337.277312	-4.595580	1105.062049	-112.496175	-43.522001	1085.161652	-448.444252	107.445905	1064.422213	-110.579045	196.387892	1058.060115	-117.557409	267.631515	1006.641823	-124.519006	206.452694	1089.562074	-134.003514	392.932384	936.086746	-158.979237	312.787438	867.133787	-126.273659	275.925749	786.485675	-129.925691	208.091446	734.509743	-125.032279	299.024009	768.238352	-154.515758	129.409799	626.313253	-120.071633	48.417509	622.633769	-160.305723	307.409181	481.514791	-162.481547	209.332788	504.511629	-95.156675	22.032159	959.174800	-466.484135	78.527681	894.556985	-468.921273	112.053412	908.740876	-460.260833	94.317418	805.303953	-468.381173	151.181968	672.981406	-430.101082	138.054585	659.868748	-323.197069	114.464243	552.569328	-460.324459	127.148508	466.693234	-449.043397	94.680079	384.025981	-449.432348	157.447977	466.009753	-425.803522	91.191668	262.694854	-443.253217	27.984016	233.671768	-401.243317	312.351928	155.924781	-399.930532	203.159533	150.332838	-465.633392	-264.233895	892.134324	-285.360902	-53.424444	79.459999	-474.664840	-53.414838	79.365577	-77.057058	
503	2.5150	477.975552	1292.331622	-158.883427	474.053628	1302.786890	-423.311856	443.002374	1381.258259	-297.058973	410.015602	1217.594919	-292.701527	477.643548	1077.102545	24.589877	665.067749	964.580546	-88.716753	449.636540	1083.893789	-620.704185	654.302204	971.778729	-506.217775	-119.876645	1188.778409	-288.855058	32.488550	1190.546203	-434.189430	23.170450	1221.925576	-151.076104	74.670132	1136.975109	-391.013572	62.265387	1160.197054	-176.169283	-87.110214	1241.688283	-253.962041	-79.134883	1235.575369	-338.852159	-6.482474	1106.446290	-113.092957	-43.672758	1084.595568	-449.474551	105.863552	1065.631337	-111.392907	194.776742	1059.108375	-118.701360	265.986531	1007.834906	-125.553334	204.764020	1090.647215	-135.226684	391.669822	937.303932	-160.250639	312.086840	867.673881	-127.431674	276.166515	786.521132	-130.534956	209.010785	733.821569	-125.344574	299.581282	768.434162	-154.937742	131.604163	624.172545	-119.816770	50.673007	618.028750	-159.871091	313.933169	484.874533	-162.644996	215.118088	504.793570	-94.802750	22.915221	958.828421	-466.479425	79.985696	894.819166	-467.876621	113.235177	909.280733	-458.771083	96.638487	805.676518	-467.278471	154.615050	673.836521	-429.093511	141.154454	660.956526	-322.109278	114.861367	553.981061	-459.192973	125.574010	467.848942	-448.001094	91.206727	385.864235	-448.425998	155.889365	466.326203	-424.863896	85.025599	264.186426	-442.302427	21.833279	235.630931	-399.365324	305.465028	155.129144	-400.896629	195.620922	150.497493	-465.303943	-264.301024	892.164672	-285.163506	-53.445267	79.509888	-474.651635	-53.418943	79.356544	-77.067051	
